# xmcd
#
# Track frame offsets:
#	150
#	10766
#	21646
#	34726
#	46366
#	60496
#	70216
#	81196
#	93346
#	99954
#	112096
#	120256
#	135526
#	148156
#
# Disc length: 2291 seconds
#
# Revision: 0
# Processed by: cddbd v1.5.1PL0 Copyright (c) Steve Scherf et al.
# Submitted via: dBpowerAMP V4.0
#
DISCID=b908f10e
DTITLE=The Seatsniffers - Let's Burn Down The Cornfield
DYEAR=2004
DGENRE=Southern Rock
TTITLE0=Make Like A Rocket And Fly
TTITLE1=Gimme Gimme
TTITLE2=Let's Burn Down The Cornfield
TTITLE3=I Want To Know
TTITLE4=Crush
TTITLE5=We're Gonna Rock
TTITLE6=Give Me Some Sugar
TTITLE7=It'll Never Come To Light
TTITLE8=She's Allright With Me
TTITLE9=Sticks And Stones
TTITLE10=I Want Some More
TTITLE11=Depression's Got Me Again
TTITLE12=You Got It All Mixed Up
TTITLE13=Get High
EXTD=
EXTT0=
EXTT1=
EXTT2=
EXTT3=
EXTT4=
EXTT5=
EXTT6=
EXTT7=
EXTT8=
EXTT9=
EXTT10=
EXTT11=
EXTT12=
EXTT13=
PLAYORDER=
